<svg viewBox="0 0 100 200" style="background-color:#ffffff00" xmlns="http://www.w3.org/2000/svg" width="100" height="200"><defs><radialGradient id="a"><stop stop-color="#222" stop-opacity="0" offset="70%"/><stop stop-color="#222" stop-opacity=".012" offset="70.202%"/><stop stop-color="#333" offset="85%"/><stop stop-color="#333" stop-opacity="0" offset="100%"/></radialGradient><radialGradient id="b"><stop stop-color="#bbb" stop-opacity="0" offset="70%"/><stop stop-color="#bbb" stop-opacity=".012" offset="70.202%"/><stop stop-color="#bbb" offset="85%"/><stop stop-color="#bbb" stop-opacity="0" offset="100%"/></radialGradient><filter id="c" x="-100%" y="-100%" width="300%" height="300%"><feColorMatrix result="out" in="SourceGraphic" values="0 0 0 0 0 0 0 0 0 0 0 0 0 0 0 0 0 0 0.251 0"/><feMorphology result="out" in="out" operator="dilate" radius="3"/><feGaussianBlur result="out" in="out" stdDeviation="1.5"/><feBlend in="SourceGraphic" in2="out" result="Glow1"/></filter><filter id="d" x="-100%" y="-100%" width="300%" height="300%"><feColorMatrix result="out" in="SourceGraphic" values="0 0 0 0.8667 0 0 0 0 0.8667 0 0 0 0 0.8667 0 0 0 0 0.251 0"/><feMorphology result="out" in="out" operator="dilate" radius="3"/><feGaussianBlur result="out" in="out" stdDeviation="1.5"/><feBlend in="SourceGraphic" in2="out" result="Glow2"/></filter></defs><g><path d="M22 50c0-15.464 12.536-28 28-28s28 12.536 28 28-12.536 28-28 28-28-12.536-28-28zM5 50c0 24.853 20.147 45 45 45s45-20.147 45-45S74.853 5 50 5 5 25.147 5 50z" fill="url(#a)"/><path d="M22 150c0-15.464 12.536-28 28-28s28 12.536 28 28-12.536 28-28 28-28-12.536-28-28zm-17 0c0 24.853 20.147 45 45 45s45-20.147 45-45-20.147-45-45-45-45 20.147-45 45z" fill="url(#b)"/></g><g><path filter="url(#c)" d="M72.5 49.5L38.75 68.986V30.014L72.5 49.5z" fill="#fff"/><path d="M13 50.5C13 29.79 29.79 13 50.5 13S88 29.79 88 50.5 71.21 88 50.5 88 13 71.21 13 50.5z" stroke="#fff" stroke-width="5" fill="none"/></g><g><path filter="url(#d)" d="M72.5 149.5l-33.75 19.486v-38.972L72.5 149.5z" fill="#fff"/><path d="M13 150.5c0-20.71 16.79-37.5 37.5-37.5S88 129.79 88 150.5 71.21 188 50.5 188 13 171.21 13 150.5z" stroke="#fff" stroke-width="5" fill="none"/></g></svg>